<svg width="22" height="22" viewBox="0 0 20 22" fill="none" xmlns="http://www.w3.org/2000/svg">
    <path
        d="M3.76607 5.922C2.65407 6.844 2.36207 8.405 1.77607 11.525C0.953067 15.915 0.542067 18.109 1.74207 19.555C2.94207 21 5.17407 21 9.63907 21H10.3611C14.8261 21 17.0591 21 18.2581 19.555C19.4581 18.109 19.0451 15.915 18.2231 11.525C17.6371 8.405 17.3451 6.844 16.2331 5.922M16.2351 5.922C15.1241 5 13.5361 5 10.3601 5H9.63807C6.46307 5 4.87507 5 3.76407 5.922"
        stroke="black" stroke-width="2.5" />
    <path opacity="0.5"
        d="M7 5V4C7 3.20435 7.31607 2.44129 7.87868 1.87868C8.44129 1.31607 9.20435 1 10 1C10.7956 1 11.5587 1.31607 12.1213 1.87868C12.6839 2.44129 13 3.20435 13 4V5"
        stroke="black" stroke-width="2.0" stroke-linecap="round" />
</svg>