<svg width="32" height="32" viewBox="0 0 32 32" fill="none" xmlns="http://www.w3.org/2000/svg">
    <rect width="32" height="32" rx="16" fill="white" />
    <path
        d="M16 21C15.0111 21 14.0444 20.7068 13.2222 20.1574C12.3999 19.6079 11.759 18.8271 11.3806 17.9134C11.0022 16.9998 10.9031 15.9945 11.0961 15.0246C11.289 14.0546 11.7652 13.1637 12.4645 12.4645C13.1637 11.7652 14.0546 11.289 15.0246 11.0961C15.9945 10.9031 16.9998 11.0022 17.9134 11.3806C18.8271 11.759 19.6079 12.3999 20.1574 13.2222C20.7068 14.0444 21 15.0111 21 16C20.9984 17.3256 20.4711 18.5964 19.5338 19.5338C18.5964 20.4711 17.3256 20.9984 16 21ZM16 13C15.4067 13 14.8266 13.1759 14.3333 13.5056C13.8399 13.8352 13.4554 14.3038 13.2284 14.852C13.0013 15.4001 12.9419 16.0033 13.0576 16.5853C13.1734 17.1672 13.4591 17.7018 13.8787 18.1213C14.2982 18.5409 14.8328 18.8266 15.4147 18.9424C15.9967 19.0581 16.5999 18.9987 17.1481 18.7716C17.6962 18.5446 18.1648 18.1601 18.4944 17.6667C18.8241 17.1734 19 16.5933 19 16C18.9992 15.2046 18.6829 14.442 18.1204 13.8796C17.558 13.3171 16.7954 13.0008 16 13Z"
        fill="#0038FF" />
    <path
        d="M25.3086 12.9829C24.3393 11.2004 22.8993 9.71821 21.1454 8.698L21.5243 8.30457C22.2271 7.57771 23.1786 6.60571 24.3203 5.46314C24.4401 5.34327 24.5217 5.19056 24.5548 5.02431C24.5878 4.85807 24.5709 4.68575 24.506 4.52915C24.4411 4.37255 24.3313 4.2387 24.1904 4.14451C24.0495 4.05033 23.8838 4.00004 23.7143 4C23.4109 4 16.2263 4.042 11.4837 7.68743C10.3487 8.54233 9.40073 9.62045 8.698 10.8554L8.30457 10.4766C7.57771 9.77286 6.60571 8.82229 5.46314 7.67971C5.34327 7.55988 5.19056 7.47827 5.02431 7.44521C4.85807 7.41216 4.68575 7.42913 4.52915 7.49399C4.37255 7.55885 4.2387 7.66868 4.14451 7.80961C4.05033 7.95053 4.00004 8.11621 4 8.28571C4 8.59429 4.04286 15.892 7.77657 20.6303C8.61604 21.7157 9.66253 22.6238 10.8554 23.302L10.2923 23.8849C9.61086 24.5877 8.72543 25.4911 7.67971 26.5369C7.55988 26.6567 7.47827 26.8094 7.44521 26.9757C7.41216 27.1419 7.42913 27.3142 7.49399 27.4708C7.55885 27.6274 7.66868 27.7613 7.80961 27.8555C7.95053 27.9497 8.11621 28 8.28571 28C8.53086 28 14.338 27.97 18.9649 25.3377C20.7696 24.3668 22.2707 22.9155 23.302 21.1446C23.4769 21.3126 23.6711 21.5003 23.8849 21.7077C24.5877 22.3891 25.4911 23.2746 26.5369 24.3203C26.6567 24.4401 26.8094 24.5217 26.9757 24.5548C27.1419 24.5878 27.3142 24.5709 27.4708 24.506C27.6274 24.4411 27.7613 24.3313 27.8555 24.1904C27.9497 24.0495 28 23.8838 28 23.7143C28 23.4674 27.9691 17.6183 25.3086 12.9829ZM22.7114 18.2183L22.2426 19.39C21.4231 21.3075 19.9655 22.8826 18.1171 23.848C15.7477 25.0884 13.1619 25.8618 10.5006 26.1263C10.8777 25.7406 13.7817 22.7123 13.7817 22.7123L12.6091 22.2434C11.2305 21.677 10.0274 20.754 9.12314 19.5691C6.946 16.8057 6.15914 12.916 5.87457 10.5006C6.34086 10.9583 9.28771 13.7809 9.28771 13.7809L9.75571 12.6091C10.3398 11.1922 11.2983 9.96081 12.5286 9.04686C15.2851 6.92714 19.1114 6.15571 21.4994 5.87457C21.0417 6.34 18.2183 9.28771 18.2183 9.28771L19.3909 9.75657C21.292 10.5684 22.8565 12.0088 23.8223 13.8366C25.0785 16.2179 25.861 18.8202 26.1263 21.4994C25.7406 21.1223 22.7114 18.2183 22.7114 18.2183Z"
        fill="#0038FF" />
</svg>