<svg width="44" height="46" viewBox="0 0 44 46" fill="none" xmlns="http://www.w3.org/2000/svg">
    <ellipse cx="22.2499" cy="23.2249" rx="21.5278" ry="22.4159" fill="white" />
    <path
        d="M23.3566 12.9147C24.1421 12.9116 24.9276 12.9198 25.7128 12.9394L25.9217 12.9472C26.1628 12.9562 26.4007 12.9674 26.6881 12.9808C27.8333 13.0369 28.6148 13.2252 29.3005 13.502C30.0109 13.7867 30.6093 14.1722 31.2078 14.7954C31.755 15.3554 32.1785 16.0327 32.4489 16.7803C32.7148 17.4943 32.8956 18.3091 32.9494 19.5016C32.9623 19.7997 32.9731 20.0486 32.9817 20.2996L32.9882 20.5171C33.0073 21.3343 33.0155 22.1518 33.0129 22.9693L33.014 23.8055V25.2737C33.0166 26.0916 33.0084 26.9095 32.9892 27.7271L32.9828 27.9446C32.9742 28.1956 32.9634 28.4433 32.9505 28.7426C32.8967 29.9351 32.7137 30.7488 32.4489 31.4627C32.1794 32.2111 31.7558 32.889 31.2078 33.4488C30.6696 34.0185 30.0187 34.4594 29.3005 34.741C28.6148 35.0179 27.8333 35.2062 26.6881 35.2622C26.4007 35.2757 26.1628 35.2869 25.9217 35.2958L25.7128 35.3026C24.9276 35.3225 24.1421 35.3311 23.3566 35.3283L22.5536 35.3295H21.1447C20.3592 35.3322 19.5737 35.3236 18.7884 35.3037L18.5796 35.297C18.3241 35.2873 18.0686 35.2761 17.8132 35.2633C16.668 35.2073 15.8865 35.0168 15.1998 34.741C14.4815 34.4601 13.8308 34.0191 13.2935 33.4488C12.7456 32.8887 12.3217 32.2109 12.0513 31.4627C11.7855 30.7488 11.6046 29.9351 11.5508 28.7426C11.5388 28.4766 11.528 28.2106 11.5185 27.9446L11.5131 27.7271C11.4933 26.9095 11.4843 26.0916 11.4862 25.2737V22.9693C11.4832 22.1518 11.4911 21.3343 11.5099 20.5171L11.5174 20.2996C11.526 20.0486 11.5368 19.7997 11.5497 19.5016C11.6035 18.308 11.7844 17.4954 12.0502 16.7803C12.3208 16.0323 12.7456 15.3552 13.2946 14.7965C13.8316 14.2258 14.4818 13.784 15.1998 13.502C15.8865 13.2252 16.6669 13.0369 17.8132 12.9808L18.5796 12.9472L18.7884 12.9416C19.5733 12.921 20.3584 12.9116 21.1436 12.9136L23.3566 12.9147ZM22.2501 18.5187C21.537 18.5082 20.829 18.6454 20.1673 18.9222C19.5055 19.1991 18.9032 19.6102 18.3954 20.1316C17.8875 20.6529 17.4843 21.2742 17.209 21.9592C16.9338 22.6443 16.7921 23.3795 16.7921 24.1221C16.7921 24.8647 16.9338 25.5999 17.209 26.2849C17.4843 26.97 17.8875 27.5912 18.3954 28.1126C18.9032 28.634 19.5055 29.045 20.1673 29.3219C20.829 29.5988 21.537 29.736 22.2501 29.7255C23.6775 29.7255 25.0464 29.1351 26.0557 28.0841C27.065 27.0332 27.6321 25.6078 27.6321 24.1215C27.6321 22.6353 27.065 21.2099 26.0557 20.1589C25.0464 19.108 23.6775 18.5187 22.2501 18.5187ZM22.2501 20.7603C22.6791 20.752 23.1053 20.8329 23.5039 20.9981C23.9025 21.1633 24.2655 21.4096 24.5716 21.7225C24.8778 22.0354 25.121 22.4088 25.2871 22.8207C25.4531 23.2326 25.5387 23.6748 25.5388 24.1215C25.5388 24.5682 25.4534 25.0105 25.2875 25.4224C25.1216 25.8344 24.8785 26.2078 24.5724 26.5208C24.2663 26.8339 23.9034 27.0803 23.5049 27.2456C23.1063 27.411 22.6801 27.492 22.2512 27.4839C21.3948 27.4839 20.5734 27.1297 19.9678 26.4991C19.3622 25.8685 19.022 25.0133 19.022 24.1215C19.022 23.2298 19.3622 22.3745 19.9678 21.744C20.5734 21.1134 21.3948 20.7591 22.2512 20.7591L22.2501 20.7603ZM27.9011 16.8375C27.5539 16.852 27.2255 17.0058 26.9847 17.2667C26.7439 17.5277 26.6095 17.8755 26.6095 18.2374C26.6095 18.5992 26.7439 18.9471 26.9847 19.208C27.2255 19.4689 27.5539 19.6228 27.9011 19.6372C28.258 19.6372 28.6002 19.4896 28.8526 19.2269C29.1049 18.9642 29.2466 18.6078 29.2466 18.2362C29.2466 17.8647 29.1049 17.5083 28.8526 17.2456C28.6002 16.9828 28.258 16.8352 27.9011 16.8352V16.8375Z"
        fill="black" />
</svg>