<svg width="44" height="46" viewBox="0 0 44 46" fill="none" xmlns="http://www.w3.org/2000/svg">
    <ellipse cx="21.9722" cy="23.2249" rx="21.5278" ry="22.4159" fill="white" />
    <path
        d="M29.4513 14.3624C30.0223 14.3624 30.5699 14.5985 30.9736 15.0189C31.3773 15.4393 31.6041 16.0094 31.6041 16.604V32.2951C31.6041 32.8896 31.3773 33.4597 30.9736 33.8801C30.5699 34.3005 30.0223 34.5366 29.4513 34.5366H14.3819C13.811 34.5366 13.2634 34.3005 12.8597 33.8801C12.4559 33.4597 12.2291 32.8896 12.2291 32.2951V16.604C12.2291 16.0094 12.4559 15.4393 12.8597 15.0189C13.2634 14.5985 13.811 14.3624 14.3819 14.3624H29.4513ZM28.9132 31.7347V25.7945C28.9132 24.8254 28.5435 23.8961 27.8854 23.2108C27.2273 22.5256 26.3348 22.1407 25.4041 22.1407C24.4892 22.1407 23.4236 22.7235 22.9069 23.5977V22.3536H19.9038V31.7347H22.9069V26.2091C22.9069 25.3461 23.5743 24.64 24.4031 24.64C24.8028 24.64 25.186 24.8054 25.4687 25.0996C25.7513 25.3939 25.91 25.793 25.91 26.2091V31.7347H28.9132ZM16.4055 20.594C16.8851 20.594 17.3451 20.3956 17.6842 20.0425C18.0233 19.6894 18.2138 19.2104 18.2138 18.711C18.2138 17.6687 17.4066 16.8169 16.4055 16.8169C15.9231 16.8169 15.4604 17.0165 15.1192 17.3717C14.7781 17.7269 14.5864 18.2087 14.5864 18.711C14.5864 19.7534 15.4045 20.594 16.4055 20.594ZM17.9017 31.7347V22.3536H14.9201V31.7347H17.9017Z"
        fill="black" />
</svg>