<svg width="20" height="20" viewBox="0 0 20 20" fill="none" xmlns="http://www.w3.org/2000/svg">
    <path fill-rule="evenodd" clip-rule="evenodd"
        d="M8.7999 2.20005C7.04947 2.20005 5.37074 2.89541 4.133 4.13315C2.89526 5.37088 2.1999 7.04962 2.1999 8.80005C2.1999 10.5505 2.89526 12.2292 4.133 13.467C5.37074 14.7047 7.04947 15.4 8.7999 15.4C10.5503 15.4 12.2291 14.7047 13.4668 13.467C14.7045 12.2292 15.3999 10.5505 15.3999 8.80005C15.3999 7.04962 14.7045 5.37088 13.4668 4.13315C12.2291 2.89541 10.5503 2.20005 8.7999 2.20005ZM0.399902 8.80005C0.400016 7.45685 0.722237 6.13327 1.33954 4.94032C1.95684 3.74738 2.85122 2.71986 3.94765 1.94397C5.04408 1.16807 6.31059 0.666418 7.64094 0.481095C8.97129 0.295771 10.3267 0.432179 11.5934 0.878876C12.8602 1.32557 14.0013 2.06953 14.9212 3.04835C15.841 4.02716 16.5127 5.21229 16.8799 6.50432C17.2471 7.79634 17.2991 9.15759 17.0316 10.4739C16.764 11.7902 16.1848 13.0231 15.3423 14.0692L19.3359 18.064C19.4243 18.1464 19.4952 18.2458 19.5444 18.3562C19.5936 18.4666 19.6201 18.5858 19.6222 18.7066C19.6243 18.8275 19.6021 18.9475 19.5568 19.0596C19.5116 19.1716 19.4442 19.2734 19.3587 19.3589C19.2733 19.4444 19.1715 19.5117 19.0594 19.557C18.9474 19.6023 18.8273 19.6245 18.7065 19.6224C18.5856 19.6202 18.4665 19.5938 18.3561 19.5446C18.2457 19.4954 18.1463 19.4245 18.0639 19.3361L14.0691 15.3424C12.835 16.3365 11.3448 16.9612 9.77071 17.1443C8.19663 17.3275 6.60285 17.0616 5.17344 16.3775C3.74403 15.6933 2.5373 14.6188 1.69263 13.278C0.847958 11.9372 0.399795 10.3847 0.399902 8.80005Z"
        fill="hsl(227, 100%, 50%)" />
</svg>