<svg width="16" height="16" viewBox="0 0 21 16" fill="none" xmlns="http://www.w3.org/2000/svg">
    <path
        d="M12.7662 2.70304C12.5619 2.48385 12.4507 2.19395 12.456 1.8944C12.4613 1.59485 12.5827 1.30905 12.7945 1.0972C13.0063 0.885358 13.2921 0.76401 13.5917 0.758725C13.8912 0.75344 14.1811 0.864629 14.4003 1.06887L20.567 7.23554C20.7835 7.45233 20.9052 7.74621 20.9052 8.05262C20.9052 8.35903 20.7835 8.65291 20.567 8.8697L14.4003 15.0364C14.2945 15.15 14.1668 15.2411 14.025 15.3043C13.8832 15.3675 13.7301 15.4015 13.5748 15.4042C13.4196 15.4069 13.2653 15.3784 13.1214 15.3202C12.9774 15.2621 12.8466 15.1755 12.7368 15.0657C12.627 14.9559 12.5405 14.8251 12.4823 14.6812C12.4242 14.5372 12.3956 14.383 12.3983 14.2277C12.4011 14.0725 12.4351 13.9194 12.4983 13.7775C12.5615 13.6357 12.6526 13.5081 12.7662 13.4022L16.9595 9.20887H2.02075C1.7141 9.20887 1.42 9.08705 1.20316 8.87021C0.986321 8.65337 0.864502 8.35928 0.864502 8.05262C0.864502 7.74596 0.986321 7.45187 1.20316 7.23503C1.42 7.01819 1.7141 6.89637 2.02075 6.89637H16.9595L12.7662 2.70304Z"
        fill="black" />
</svg>