<svg width="44" height="46" viewBox="0 0 44 46" fill="none" xmlns="http://www.w3.org/2000/svg">
    <ellipse cx="22.3889" cy="23.2249" rx="21.5278" ry="22.4159" fill="white" />
    <path
        d="M33.6479 17.3967C32.8191 17.789 31.9257 18.0468 31 18.1701C31.9472 17.5761 32.6792 16.6346 33.0236 15.5026C32.1302 16.063 31.14 16.4553 30.0959 16.6794C29.2455 15.7155 28.0507 15.1552 26.6945 15.1552C24.165 15.1552 22.0983 17.3071 22.0983 19.9634C22.0983 20.3444 22.1413 20.7143 22.2167 21.0617C18.3847 20.86 14.9726 18.9434 12.7014 16.0406C12.3031 16.7467 12.0771 17.5761 12.0771 18.4503C12.0771 20.1203 12.8844 21.5997 14.133 22.4403C13.3688 22.4403 12.6584 22.2161 12.034 21.8799V21.9135C12.034 24.2448 13.6271 26.195 15.7368 26.6321C15.0595 26.8251 14.3484 26.8519 13.6594 26.7105C13.9518 27.666 14.5243 28.502 15.2966 29.1011C16.0689 29.7002 17.0021 30.0322 17.965 30.0505C16.3327 31.3959 14.3095 32.1232 12.2278 32.1128C11.8618 32.1128 11.4959 32.0903 11.1299 32.0455C13.175 33.4129 15.6077 34.2086 18.2125 34.2086C26.6945 34.2086 31.3552 26.8786 31.3552 20.5238C31.3552 20.3108 31.3552 20.1091 31.3445 19.8961C32.2486 19.2236 33.0236 18.3718 33.6479 17.3967Z"
        fill="black" />
</svg>