<svg width="44" height="46" viewBox="0 0 44 46" fill="none" xmlns="http://www.w3.org/2000/svg">
    <ellipse cx="22.111" cy="23.2249" rx="21.5278" ry="22.4159" fill="white" />
    <path
        d="M19.7639 27.8119L25.3504 24.4495L19.7639 21.0871V27.8119ZM32.207 19.0361C32.3469 19.5628 32.4438 20.2689 32.5084 21.1656C32.5837 22.0622 32.616 22.8356 32.616 23.508L32.6806 24.4495C32.6806 26.904 32.5084 28.7085 32.207 29.8629C31.9379 30.8716 31.3136 31.5217 30.3448 31.8019C29.8389 31.9476 28.9132 32.0485 27.4924 32.1157C26.0931 32.1942 24.8122 32.2278 23.6282 32.2278L21.9167 32.2951C17.4067 32.2951 14.5973 32.1157 13.4886 31.8019C12.5198 31.5217 11.8955 30.8716 11.6264 29.8629C11.4865 29.3362 11.3896 28.6301 11.3251 27.7334C11.2497 26.8368 11.2174 26.0634 11.2174 25.391L11.1528 24.4495C11.1528 21.995 11.3251 20.1905 11.6264 19.0361C11.8955 18.0274 12.5198 17.3773 13.4886 17.0971C13.9945 16.9514 14.9202 16.8505 16.341 16.7833C17.7403 16.7048 19.0212 16.6712 20.2053 16.6712L21.9167 16.6039C26.4268 16.6039 29.2362 16.7833 30.3448 17.0971C31.3136 17.3773 31.9379 18.0274 32.207 19.0361Z"
        fill="black" />
</svg>