<svg width="133" height="34" viewBox="0 0 183 34" fill="none" xmlns="http://www.w3.org/2000/svg">
    <path
        d="M16 21C15.0111 21 14.0444 20.7068 13.2222 20.1574C12.3999 19.6079 11.759 18.8271 11.3806 17.9134C11.0022 16.9998 10.9031 15.9945 11.0961 15.0246C11.289 14.0546 11.7652 13.1637 12.4645 12.4645C13.1637 11.7652 14.0546 11.289 15.0246 11.0961C15.9945 10.9031 16.9998 11.0022 17.9134 11.3806C18.8271 11.759 19.6079 12.3999 20.1574 13.2222C20.7068 14.0444 21 15.0111 21 16C20.9984 17.3256 20.4711 18.5964 19.5338 19.5338C18.5964 20.4711 17.3256 20.9984 16 21ZM16 13C15.4067 13 14.8266 13.1759 14.3333 13.5056C13.8399 13.8352 13.4554 14.3038 13.2284 14.852C13.0013 15.4001 12.9419 16.0033 13.0576 16.5853C13.1734 17.1672 13.4591 17.7018 13.8787 18.1213C14.2982 18.5409 14.8328 18.8266 15.4147 18.9424C15.9967 19.0581 16.5999 18.9987 17.1481 18.7716C17.6962 18.5446 18.1648 18.1601 18.4944 17.6667C18.8241 17.1734 19 16.5933 19 16C18.9992 15.2046 18.6829 14.442 18.1204 13.8796C17.558 13.3171 16.7954 13.0008 16 13Z"
        fill="#0038FF" />
    <path
        d="M26.86 12.48C25.7292 10.4004 24.0491 8.67125 22.003 7.481L22.445 7.022C23.265 6.174 24.375 5.04 25.707 3.707C25.8468 3.56715 25.942 3.38898 25.9806 3.19503C26.0192 3.00108 25.9993 2.80005 25.9237 2.61735C25.848 2.43465 25.7199 2.27848 25.5555 2.1686C25.391 2.05871 25.1978 2.00004 25 2C24.646 2 16.264 2.049 10.731 6.302C9.40687 7.29939 8.30085 8.55719 7.481 9.998L7.022 9.556C6.174 8.735 5.04 7.626 3.707 6.293C3.56715 6.15319 3.38898 6.05798 3.19503 6.01942C3.00108 5.98085 2.80005 6.00065 2.61735 6.07632C2.43465 6.15199 2.27848 6.28013 2.1686 6.44454C2.05871 6.60895 2.00004 6.80225 2 7C2 7.36 2.05 15.874 6.406 21.402C7.38539 22.6684 8.60629 23.7278 9.998 24.519L9.341 25.199C8.546 26.019 7.513 27.073 6.293 28.293C6.15319 28.4329 6.05798 28.611 6.01942 28.805C5.98085 28.9989 6.00065 29.2 6.07632 29.3827C6.15199 29.5654 6.28013 29.7215 6.44454 29.8314C6.60895 29.9413 6.80225 30 7 30C7.286 30 14.061 29.965 19.459 26.894C21.5646 25.7612 23.3158 24.0681 24.519 22.002C24.723 22.198 24.9497 22.417 25.199 22.659C26.019 23.454 27.073 24.487 28.293 25.707C28.4329 25.8468 28.611 25.942 28.805 25.9806C28.9989 26.0192 29.2 25.9993 29.3827 25.9237C29.5654 25.848 29.7215 25.7199 29.8314 25.5555C29.9413 25.391 30 25.1978 30 25C30 24.712 29.964 17.888 26.86 12.48ZM23.83 18.588L23.283 19.955C22.3269 22.1921 20.6265 24.0297 18.47 25.156C15.7056 26.6031 12.6889 27.5055 9.584 27.814C10.024 27.364 13.412 23.831 13.412 23.831L12.044 23.284C10.4356 22.6232 9.03192 21.5463 7.977 20.164C5.437 16.94 4.519 12.402 4.187 9.584C4.731 10.118 8.169 13.411 8.169 13.411L8.715 12.044C9.39643 10.3909 10.5147 8.95428 11.95 7.888C15.166 5.415 19.63 4.515 22.416 4.187C21.882 4.73 18.588 8.169 18.588 8.169L19.956 8.716C22.174 9.66313 23.9992 11.3436 25.126 13.476C26.5916 16.2542 27.5045 19.2902 27.814 22.416C27.364 21.976 23.83 18.588 23.83 18.588Z"
        fill="#0038FF" />
    <path
        d="M48.632 27V7.4H56.696C58.432 7.4 59.916 7.68 61.148 8.24C62.3987 8.8 63.36 9.60267 64.032 10.648C64.704 11.6933 65.04 12.9347 65.04 14.372C65.04 15.8093 64.704 17.0507 64.032 18.096C63.36 19.1413 62.3987 19.944 61.148 20.504C59.916 21.064 58.432 21.344 56.696 21.344H50.648L52.272 19.636V27H48.632ZM52.272 20.028L50.648 18.264H56.528C58.1333 18.264 59.3373 17.928 60.14 17.256C60.9613 16.5653 61.372 15.604 61.372 14.372C61.372 13.1213 60.9613 12.16 60.14 11.488C59.3373 10.816 58.1333 10.48 56.528 10.48H50.648L52.272 8.688V20.028ZM78.0204 27.28C76.5271 27.28 75.1364 27.0373 73.8484 26.552C72.5791 26.048 71.4684 25.348 70.5164 24.452C69.5831 23.5373 68.8551 22.464 68.3324 21.232C67.8097 20 67.5484 18.656 67.5484 17.2C67.5484 15.744 67.8097 14.4 68.3324 13.168C68.8551 11.936 69.5924 10.872 70.5444 9.976C71.4964 9.06133 72.6071 8.36133 73.8764 7.876C75.1457 7.372 76.5364 7.12 78.0484 7.12C79.6537 7.12 81.1191 7.4 82.4444 7.96C83.7697 8.50133 84.8897 9.31333 85.8044 10.396L83.4524 12.608C82.7431 11.8427 81.9497 11.2733 81.0724 10.9C80.1951 10.508 79.2431 10.312 78.2164 10.312C77.1897 10.312 76.2471 10.48 75.3884 10.816C74.5484 11.152 73.8111 11.628 73.1764 12.244C72.5604 12.86 72.0751 13.588 71.7204 14.428C71.3844 15.268 71.2164 16.192 71.2164 17.2C71.2164 18.208 71.3844 19.132 71.7204 19.972C72.0751 20.812 72.5604 21.54 73.1764 22.156C73.8111 22.772 74.5484 23.248 75.3884 23.584C76.2471 23.92 77.1897 24.088 78.2164 24.088C79.2431 24.088 80.1951 23.9013 81.0724 23.528C81.9497 23.136 82.7431 22.548 83.4524 21.764L85.8044 24.004C84.8897 25.068 83.7697 25.88 82.4444 26.44C81.1191 27 79.6444 27.28 78.0204 27.28ZM103.106 27.28C101.576 27.28 100.11 27.0653 98.7104 26.636C97.3104 26.188 96.1998 25.6187 95.3784 24.928L96.6384 22.1C97.4224 22.716 98.3931 23.2293 99.5504 23.64C100.708 24.0507 101.893 24.256 103.106 24.256C104.133 24.256 104.964 24.144 105.598 23.92C106.233 23.696 106.7 23.3973 106.998 23.024C107.297 22.632 107.446 22.1933 107.446 21.708C107.446 21.1107 107.232 20.6347 106.802 20.28C106.373 19.9067 105.813 19.6173 105.122 19.412C104.45 19.188 103.694 18.9827 102.854 18.796C102.033 18.6093 101.202 18.3947 100.362 18.152C99.5411 17.8907 98.7851 17.564 98.0944 17.172C97.4224 16.7613 96.8718 16.22 96.4424 15.548C96.0131 14.876 95.7984 14.0173 95.7984 12.972C95.7984 11.908 96.0784 10.9373 96.6384 10.06C97.2171 9.164 98.0851 8.45467 99.2424 7.932C100.418 7.39067 101.902 7.12 103.694 7.12C104.87 7.12 106.037 7.26933 107.194 7.568C108.352 7.86667 109.36 8.296 110.218 8.856L109.07 11.684C108.193 11.1613 107.288 10.7787 106.354 10.536C105.421 10.2747 104.525 10.144 103.666 10.144C102.658 10.144 101.837 10.2653 101.202 10.508C100.586 10.7507 100.129 11.068 99.8304 11.46C99.5504 11.852 99.4104 12.3 99.4104 12.804C99.4104 13.4013 99.6158 13.8867 100.026 14.26C100.456 14.6147 101.006 14.8947 101.678 15.1C102.369 15.3053 103.134 15.5107 103.974 15.716C104.814 15.9027 105.645 16.1173 106.466 16.36C107.306 16.6027 108.062 16.92 108.734 17.312C109.425 17.704 109.976 18.236 110.386 18.908C110.816 19.58 111.03 20.4293 111.03 21.456C111.03 22.5013 110.741 23.472 110.162 24.368C109.602 25.2453 108.734 25.9547 107.558 26.496C106.382 27.0187 104.898 27.28 103.106 27.28ZM119.932 27.196C118.289 27.196 117.02 26.776 116.124 25.936C115.228 25.0773 114.78 23.8173 114.78 22.156V8.744H118.28V22.072C118.28 22.7813 118.457 23.332 118.812 23.724C119.185 24.116 119.698 24.312 120.352 24.312C121.136 24.312 121.789 24.1067 122.312 23.696L123.292 26.188C122.881 26.524 122.377 26.776 121.78 26.944C121.182 27.112 120.566 27.196 119.932 27.196ZM112.316 14.96V12.16H122.284V14.96H112.316ZM132.399 27.196C130.868 27.196 129.505 26.8693 128.311 26.216C127.116 25.544 126.173 24.6293 125.483 23.472C124.792 22.3147 124.447 20.9987 124.447 19.524C124.447 18.0307 124.792 16.7147 125.483 15.576C126.173 14.4187 127.116 13.5133 128.311 12.86C129.505 12.2067 130.868 11.88 132.399 11.88C133.948 11.88 135.32 12.2067 136.515 12.86C137.728 13.5133 138.671 14.4093 139.343 15.548C140.033 16.6867 140.379 18.012 140.379 19.524C140.379 20.9987 140.033 22.3147 139.343 23.472C138.671 24.6293 137.728 25.544 136.515 26.216C135.32 26.8693 133.948 27.196 132.399 27.196ZM132.399 24.2C133.257 24.2 134.023 24.0133 134.695 23.64C135.367 23.2667 135.889 22.7253 136.263 22.016C136.655 21.3067 136.851 20.476 136.851 19.524C136.851 18.5533 136.655 17.7227 136.263 17.032C135.889 16.3227 135.367 15.7813 134.695 15.408C134.023 15.0347 133.267 14.848 132.427 14.848C131.568 14.848 130.803 15.0347 130.131 15.408C129.477 15.7813 128.955 16.3227 128.563 17.032C128.171 17.7227 127.975 18.5533 127.975 19.524C127.975 20.476 128.171 21.3067 128.563 22.016C128.955 22.7253 129.477 23.2667 130.131 23.64C130.803 24.0133 131.559 24.2 132.399 24.2ZM143.726 27V12.048H147.058V16.164L146.666 14.96C147.114 13.952 147.814 13.1867 148.766 12.664C149.736 12.1413 150.94 11.88 152.378 11.88V15.212C152.228 15.1747 152.088 15.156 151.958 15.156C151.827 15.1373 151.696 15.128 151.566 15.128C150.24 15.128 149.186 15.52 148.402 16.304C147.618 17.0693 147.226 18.2173 147.226 19.748V27H143.726ZM174.219 11.88C175.413 11.88 176.468 12.1133 177.383 12.58C178.316 13.0467 179.044 13.7653 179.567 14.736C180.089 15.688 180.351 16.92 180.351 18.432V27H176.851V18.88C176.851 17.5547 176.561 16.5653 175.983 15.912C175.404 15.2587 174.573 14.932 173.491 14.932C172.725 14.932 172.044 15.1 171.447 15.436C170.868 15.772 170.411 16.2667 170.075 16.92C169.757 17.5733 169.599 18.404 169.599 19.412V27H166.099V18.88C166.099 17.5547 165.809 16.5653 165.231 15.912C164.652 15.2587 163.821 14.932 162.739 14.932C161.973 14.932 161.292 15.1 160.695 15.436C160.116 15.772 159.659 16.2667 159.323 16.92C159.005 17.5733 158.847 18.404 158.847 19.412V27H155.347V12.048H158.679V16.024L158.091 14.848C158.595 13.8773 159.323 13.14 160.275 12.636C161.245 12.132 162.347 11.88 163.579 11.88C164.979 11.88 166.192 12.2253 167.219 12.916C168.264 13.6067 168.955 14.652 169.291 16.052L167.919 15.576C168.404 14.456 169.207 13.56 170.327 12.888C171.447 12.216 172.744 11.88 174.219 11.88Z"
        fill="black" />
</svg>